<?xml version="1.0" encoding="UTF-8" standalone="no"?>
<!-- Created with Inkscape (http://www.inkscape.org/) -->

<svg
   width="4800"
   height="1024"
   viewBox="0 0 1304.5155 278.29664"
   version="1.1"
   id="svg1"
   xmlns="http://www.w3.org/2000/svg"
   xmlns:svg="http://www.w3.org/2000/svg">
  <defs
     id="defs1" />
  <g
     id="layer1" />
  <g
     id="text1"
     style="font-size:268.942px;line-height:1;font-family:Gudea;-inkscape-font-specification:Gudea;letter-spacing:0px;word-spacing:0px;fill:#e6e6e6;stroke-width:0.513588;stroke-dashoffset:22.6771"
     aria-label="CET Units">
    <path
       style="font-stretch:condensed;font-family:'Noto Sans';-inkscape-font-specification:'Noto Sans Condensed'"
       d="M 425.49291,60.886299 Q 409.08745,60.886299 398.06082,71.375036 387.30314,81.863773 381.92431,99.613945 376.54547,117.36412 376.54547,139.14842 376.54547,175.45558 389.45468,196.43306 402.63284,217.14159 426.56867,217.14159 435.7127,217.14159 444.0499,215.259 452.65605,213.10746 460.45537,209.88016 V 230.31975 Q 445.12567,237.85013 423.61031,237.85013 401.01919,237.85013 384.88267,226.01668 369.01509,213.91429 360.67789,191.86105 352.34069,169.8078 352.34069,138.87947 352.34069,111.17845 360.40895,88.856265 368.74615,66.265138 384.88267,53.355923 401.01919,40.177766 425.22396,40.177766 447.81509,40.177766 466.10315,50.397561 L 457.497,70.030326 Q 450.50451,65.996196 442.43625,63.575718 434.63693,60.886299 425.49291,60.886299 Z M 580.40371,235.16071 H 494.61121 V 43.136128 H 580.40371 V 63.575718 H 517.74023 V 124.62555 H 576.63852 V 145.06514 H 517.74023 V 214.45217 H 580.40371 Z M 663.23782,235.16071 H 640.37775 V 63.84466 H 596.27127 V 43.136128 H 707.34431 V 63.84466 H 663.23782 Z"
       id="path1" />
    <path
       style="font-stretch:condensed;font-family:'Noto Sans';-inkscape-font-specification:'Noto Sans Condensed';fill:#f25b28"
       d="M 903.67203,172.76616 Q 903.67203,204.50132 888.88022,221.17572 874.08841,237.85013 844.77374,237.85013 815.99694,237.85013 800.93619,221.44466 786.14438,204.77026 786.14438,172.76616 V 43.136128 H 809.27339 V 173.03511 Q 809.27339,195.62623 818.41742,206.38391 827.56145,217.14159 845.31162,217.14159 880.27408,217.14159 880.27408,172.76616 V 43.136128 H 903.67203 Z"
       id="path2" />
    <path
       style="font-stretch:condensed;font-family:'Noto Sans';-inkscape-font-specification:'Noto Sans Condensed'"
       d="M 1000.4909,88.049439 Q 1020.3926,88.049439 1030.6124,100.42077 1040.8322,112.52316 1040.8322,138.34159 V 235.16071 H 1018.51 V 141.83784 Q 1018.51,124.89449 1013.1311,116.28835 1007.7523,107.6822 996.18779,107.6822 978.9755,107.6822 971.98301,120.59142 964.99052,133.23169 964.99052,160.12589 V 235.16071 H 942.66834 V 90.738859 H 960.68745 L 963.37687,110.37162 H 964.72158 Q 970.10042,99.613945 979.51339,93.966163 989.1953,88.049439 1000.4909,88.049439 Z M 1090.0483,36.68152 Q 1102.6886,36.68152 1102.6886,52.011213 1102.6886,59.272647 1099.1924,63.306776 1095.9651,67.340906 1090.0483,67.340906 1084.1316,67.340906 1080.3664,63.306776 1076.8702,59.272647 1076.8702,52.011213 1076.8702,44.211895 1080.3664,40.446708 1083.8627,36.68152 1090.0483,36.68152 Z M 1100.806,90.738859 V 235.16071 H 1078.4838 V 90.738859 Z M 1178.2614,218.4863 Q 1182.0266,218.4863 1186.0607,217.67948 1190.0948,216.87265 1193.3221,215.79688 V 233.54705 Q 1189.288,235.42965 1183.6402,236.50542 1178.2614,237.85013 1172.0757,237.85013 1157.015,237.85013 1148.4088,228.43716 1140.0716,219.02419 1140.0716,197.50883 V 109.02691 H 1124.473 V 97.462409 L 1140.8784,90.469917 1147.8709,58.196879 H 1162.3938 V 90.738859 H 1191.7085 V 109.02691 H 1162.3938 V 195.35729 Q 1162.3938,206.9218 1166.159,212.83852 1169.9242,218.4863 1178.2614,218.4863 Z M 1290.6794,196.16412 Q 1290.6794,216.33477 1278.3081,227.09245 1266.2057,237.85013 1244.9593,237.85013 1233.1258,237.85013 1223.9818,235.42965 1215.1067,233.27811 1208.3832,229.51292 V 207.19074 Q 1214.8378,211.76275 1224.5197,215.259 1234.4705,218.4863 1244.4214,218.4863 1256.5238,218.4863 1262.7095,212.83852 1268.8951,207.19074 1268.8951,197.23989 1268.8951,188.90268 1263.2473,182.98596 1257.5996,177.06924 1242.8078,169.8078 1232.319,164.42896 1224.5197,158.78118 1216.7204,152.86446 1212.4173,145.33408 1208.1142,137.53476 1208.1142,126.2392 1208.1142,108.75797 1220.4856,98.538177 1232.8569,88.049439 1252.7586,88.049439 1262.9784,88.049439 1272.1224,90.738859 1281.2665,93.159337 1289.6037,97.731351 L 1281.5354,115.48152 Q 1274.8118,111.71633 1267.5504,109.29586 1260.289,106.87538 1252.4897,106.87538 1241.732,106.87538 1235.5463,111.98528 1229.6296,117.09517 1229.6296,125.43238 1229.6296,134.03852 1235.5463,139.41736 1241.732,144.7962 1256.7927,152.59552 1272.3914,160.93272 1281.5354,170.07674 1290.6794,179.22077 1290.6794,196.16412 Z"
       id="path4" />
  </g>
  <text
     xml:space="preserve"
     style="font-style:normal;font-variant:normal;font-weight:normal;font-stretch:condensed;font-size:217.419px;line-height:1;font-family:'Liberation Sans Narrow';-inkscape-font-specification:'Liberation Sans Narrow Condensed';text-align:start;text-decoration-color:#000000;letter-spacing:0px;word-spacing:0px;writing-mode:lr-tb;direction:ltr;text-anchor:start;opacity:1;fill:#686c70;fill-opacity:1;stroke-width:0.513588;stroke-dashoffset:22.6771"
     x="413.79968"
     y="598.17987"
     id="text2"><tspan
       id="tspan2"
       style="stroke-width:0.513589"
       x="413.79968"
       y="598.17987" /></text>
  <path
     style="font-stretch:condensed;font-size:244.597px;line-height:1;font-family:'Noto Sans';-inkscape-font-specification:'Noto Sans Condensed';letter-spacing:0px;word-spacing:0px;fill:#f25b28;stroke-width:0.513588;stroke-dashoffset:22.6771"
     d="M 192.59264,168.50002 Q 192.59264,197.36246 179.13981,212.52748 165.68697,227.69249 139.0259,227.69249 112.85402,227.69249 99.15659,212.77207 85.703755,197.60706 85.703755,168.50002 V 50.604263 H 106.7391 V 168.74461 Q 106.7391,189.29076 115.05539,199.07464 123.37169,208.85852 139.51509,208.85852 171.3127,208.85852 171.3127,168.50002 V 50.604263 H 192.59264 Z"
     id="text5"
     aria-label="U" />
  <path
     style="baseline-shift:baseline;display:inline;overflow:visible;vector-effect:none;fill:#e6e6e6;stroke-dashoffset:22.6771;enable-background:accumulate;stop-color:#000000;stop-opacity:1;opacity:1"
     d="M 0,18.099609 V 258.51953 H 54.355469 V 232.83984 H 25.679687 V 43.777344 H 54.355469 V 18.099609 Z"
     id="path3" />
  <path
     style="baseline-shift:baseline;display:inline;overflow:visible;vector-effect:none;fill:#e6e6e6;stroke-dashoffset:22.6771;enable-background:accumulate;stop-color:#000000;stop-opacity:1;opacity:1"
     d="M 223.94141,18.099609 V 43.777344 H 252.61719 V 232.83984 H 223.94141 V 258.51953 H 278.29687 V 18.099609 Z"
     id="path5" />
</svg>
